<?xml version="1.0" encoding="UTF-8" standalone="no"?>
<!-- Created with Inkscape (http://www.inkscape.org/) -->

<svg
   xmlns:dc="http://purl.org/dc/elements/1.1/"
   xmlns:cc="http://creativecommons.org/ns#"
   xmlns:rdf="http://www.w3.org/1999/02/22-rdf-syntax-ns#"
   xmlns:svg="http://www.w3.org/2000/svg"
   xmlns="http://www.w3.org/2000/svg"
   xmlns:sodipodi="http://sodipodi.sourceforge.net/DTD/sodipodi-0.dtd"
   xmlns:inkscape="http://www.inkscape.org/namespaces/inkscape"
   width="190mm"
   height="60mm"
   viewBox="0 0 190 60"
   version="1.1"
   id="svg2015"
   sodipodi:docname="Logo_Miovi_color.svg"
   inkscape:version="0.92.3 (2405546, 2018-03-11)">
  <defs
     id="defs2009" />
  <sodipodi:namedview
     id="base"
     pagecolor="#ffffff"
     bordercolor="#666666"
     borderopacity="1.0"
     inkscape:pageopacity="0.0"
     inkscape:pageshadow="2"
     inkscape:zoom="0.35"
     inkscape:cx="166.3555"
     inkscape:cy="575.99182"
     inkscape:document-units="mm"
     inkscape:current-layer="g591"
     showgrid="false"
     inkscape:window-width="1600"
     inkscape:window-height="822"
     inkscape:window-x="0"
     inkscape:window-y="0"
     inkscape:window-maximized="1" />
  <metadata
     id="metadata2012">
    <rdf:RDF>
      <cc:Work
         rdf:about="">
        <dc:format>image/svg+xml</dc:format>
        <dc:type
           rdf:resource="http://purl.org/dc/dcmitype/StillImage" />
        <dc:title></dc:title>
      </cc:Work>
    </rdf:RDF>
  </metadata>
  <g
     inkscape:label="Capa 1"
     inkscape:groupmode="layer"
     id="layer1"
     transform="translate(0,-237)">
    <g
       transform="matrix(0.26458333,0,0,0.26458333,803.17264,-22.919046)"
       id="g591">
      <g
         id="g431"
         style="fill:#008080"
         transform="translate(-17.142857,580)">
        <g
           id="g405"
           style="fill:#008080">
          <path
             inkscape:connector-curvature="0"
             class="st4"
             d="m -2914.7,509.1 c -4.4,4.3 -11.4,4.1 -15.7,-0.3 -4.3,-4.4 -4.1,-11.4 0.3,-15.7 4.4,-4.3 11.4,-4.1 15.7,0.3 4.2,4.4 4.1,11.4 -0.3,15.7 z m -12.7,-13.2 c -2.8,2.8 -2.9,7.3 -0.2,10.2 2.8,2.8 7.3,2.9 10.2,0.2 2.8,-2.8 2.9,-7.3 0.2,-10.2 -2.8,-2.9 -7.3,-2.9 -10.2,-0.2 z"
             id="path399"
             style="fill:#008080" />
          <path
             inkscape:connector-curvature="0"
             class="st4"
             d="m -2859,455 c -4.4,4.3 -11.4,4.1 -15.7,-0.3 -4.3,-4.4 -4.1,-11.4 0.3,-15.7 4.4,-4.3 11.4,-4.1 15.7,0.3 4.2,4.4 4.1,11.5 -0.3,15.7 z m -12.7,-13.1 c -2.8,2.8 -2.9,7.3 -0.2,10.2 2.8,2.8 7.3,2.9 10.2,0.2 2.8,-2.8 2.9,-7.3 0.2,-10.2 -2.8,-2.9 -7.4,-3 -10.2,-0.2 z"
             id="path401"
             style="fill:#008080" />
          <rect
             x="-2925.5"
             y="471.60001"
             transform="matrix(0.7188,-0.6952,0.6952,0.7188,-1143.5065,-1878.9685)"
             class="st4"
             width="62.299999"
             height="4.8000002"
             id="rect403"
             style="fill:#008080" />
        </g>
        <g
           id="g411"
           style="fill:#008080">
          <path
             inkscape:connector-curvature="0"
             class="st4"
             d="m -2952.8,509.1 c -4.4,4.3 -11.4,4.1 -15.7,-0.3 -4.3,-4.4 -4.1,-11.4 0.3,-15.7 4.4,-4.3 11.4,-4.1 15.7,0.3 4.2,4.4 4.1,11.4 -0.3,15.7 z m -12.7,-13.2 c -2.8,2.8 -2.9,7.3 -0.2,10.2 2.8,2.8 7.3,2.9 10.2,0.2 2.8,-2.8 2.9,-7.3 0.2,-10.2 -2.8,-2.9 -7.3,-2.9 -10.2,-0.2 z"
             id="path407"
             style="fill:#008080" />
          <rect
             x="-3008.1001"
             y="521.09998"
             transform="matrix(0.7188,-0.6952,0.6952,0.7188,-1202.9956,-1926.999)"
             class="st4"
             width="49.299999"
             height="4.8000002"
             id="rect409"
             style="fill:#008080" />
        </g>
        <g
           id="g417"
           style="fill:#008080">
          <path
             inkscape:connector-curvature="0"
             class="st4"
             d="m -2936,569 c 4.4,-4.3 11.4,-4.1 15.7,0.3 4.3,4.4 4.1,11.4 -0.3,15.7 -4.4,4.3 -11.4,4.1 -15.7,-0.3 -4.2,-4.4 -4.1,-11.5 0.3,-15.7 z m 12.7,13.1 c 2.8,-2.8 2.9,-7.3 0.2,-10.2 -2.8,-2.8 -7.3,-2.9 -10.2,-0.2 -2.8,2.8 -2.9,7.3 -0.2,10.2 2.8,2.9 7.4,3 10.2,0.2 z"
             id="path413"
             style="fill:#008080" />
          <rect
             x="-2936.5"
             y="536.09998"
             transform="matrix(0.7188,-0.6952,0.6952,0.7188,-1186.8213,-1856.9784)"
             class="st4"
             width="95.400002"
             height="4.8000002"
             id="rect415"
             style="fill:#008080" />
        </g>
        <g
           id="g423"
           style="fill:#008080">
          <path
             inkscape:connector-curvature="0"
             class="st4"
             d="m -2834.2,556.9 c -6.1,-0.1 -11,-5.2 -10.9,-11.3 0.1,-6.1 5.2,-11 11.3,-10.9 6.1,0.1 11,5.2 10.9,11.3 -0.1,6.2 -5.2,11 -11.3,10.9 z m 0.3,-18.2 c -4,-0.1 -7.2,3.1 -7.3,7.1 -0.1,4 3.1,7.2 7.1,7.3 4,0.1 7.2,-3.1 7.3,-7.1 0,-4 -3.2,-7.3 -7.1,-7.3 z"
             id="path419"
             style="fill:#008080" />
          <rect
             x="-2922.7"
             y="465.70001"
             transform="matrix(0.01663127,-0.9999,0.9999,0.01663127,-3416.2776,-2384.416)"
             class="st4"
             width="4.8000002"
             height="157.8"
             id="rect421"
             style="fill:#008080" />
        </g>
        <rect
           x="-2886.7"
           y="473.20001"
           transform="matrix(0.01663134,-0.9999,0.9999,0.01663134,-3338.1885,-2390.3606)"
           class="st4"
           width="4.8000002"
           height="57.400002"
           id="rect425"
           style="fill:#008080" />
        <path
           inkscape:connector-curvature="0"
           class="st4"
           d="m -3000.7,536.9 c -2,1.9 -13,9.2 3.3,8.8 l -0.9,-8 z"
           id="path427"
           style="fill:#008080" />
        <path
           inkscape:connector-curvature="0"
           class="st4"
           d="m -2854.6,508.6 c 2,-1.9 13.1,-9 -3.1,-8.6 l 0.8,8.1 z"
           id="path429"
           style="fill:#008080" />
      </g>
      <g
         id="g589"
         transform="translate(-17.142857,580)">
        <g
           id="g587">
          <g
             id="g443">
            <g
               id="g441">
              <path
                 inkscape:connector-curvature="0"
                 d="m -2802.5,463.1 h 25.2 l 31.2,61.5 30.9,-61.5 h 25 v 100.1 h -20.3 v -67.6 l -28.4,57.5 h -14.6 l -28.6,-57.5 v 67.6 h -20.3 V 463.1 Z"
                 id="path433" />
              <path
                 inkscape:connector-curvature="0"
                 d="m -2662.7,463.1 h 22.6 v 100.1 h -22.6 z"
                 id="path435" />
              <path
                 inkscape:connector-curvature="0"
                 d="m -2472.3,463.1 h 24.3 l 27.3,75.5 27.4,-75.5 h 23.3 l -39.7,100.1 h -23.3 z"
                 id="path437" />
              <path
                 inkscape:connector-curvature="0"
                 d="m -2350.5,463.1 h 22.6 v 100.1 h -22.6 z"
                 id="path439" />
            </g>
          </g>
          <g
             id="g585">
            <g
               id="g449">
              <g
                 id="g447">
                <path
                   inkscape:connector-curvature="0"
                   class="st5"
                   d="m -2551.4,572.9 c -33.6,0 -60.9,-27.3 -60.9,-60.9 0,-33.6 27.3,-60.9 60.9,-60.9 33.6,0 60.9,27.3 60.9,60.9 0,33.6 -27.3,60.9 -60.9,60.9 z m 0,-101.6 c -22.4,0 -40.7,18.2 -40.7,40.7 0,22.5 18.2,40.7 40.7,40.7 22.4,0 40.7,-18.2 40.7,-40.7 0,-22.5 -18.3,-40.7 -40.7,-40.7 z"
                   id="path445"
                   style="fill:#008080" />
              </g>
            </g>
            <g
               id="g463">
              <g
                 id="g455">
                <path
                   inkscape:connector-curvature="0"
                   class="st6"
                   d="m -2570.1,527.2 c 0,2.2 -1.9,4 -4.1,4 -2.2,0 -4,-1.9 -4,-4.1 0,-2.2 1.9,-4 4.1,-4 2.2,0 4,1.9 4,4.1 z m -6.7,-0.1 c 0,1.5 1.1,2.7 2.6,2.7 1.5,0 2.7,-1.1 2.7,-2.6 0,-1.5 -1.1,-2.7 -2.6,-2.7 -1.5,0 -2.7,1.2 -2.7,2.6 z"
                   id="path451"
                   style="fill:#008080" />
                <path
                   inkscape:connector-curvature="0"
                   class="st5"
                   d="m -2574.2,531.6 c 0,0 0,0 0,0 -2.6,0 -4.5,-2.1 -4.5,-4.6 0,-2.5 2.1,-4.4 4.5,-4.4 0,0 0.1,0 0.1,0 2.5,0 4.5,2.1 4.4,4.6 0,1.2 -0.5,2.3 -1.4,3.2 -0.8,0.8 -1.9,1.2 -3.1,1.2 z m 0,-8.1 c -2,0 -3.6,1.6 -3.7,3.6 0,2 1.6,3.7 3.6,3.7 1,0 1.9,-0.3 2.6,-1 0.7,-0.7 1.1,-1.6 1.1,-2.6 v 0 c 0,-1 -0.3,-1.9 -1,-2.6 -0.6,-0.7 -1.6,-1.1 -2.6,-1.1 0,0 0,0 0,0 z m 0,6.7 c 0,0 0,0 0,0 -0.9,0 -1.6,-0.3 -2.2,-0.9 -0.6,-0.6 -0.9,-1.4 -0.9,-2.2 v 0 c 0,-1.7 1.4,-3 3.1,-3 0,0 0,0 0.1,0 1.7,0 3,1.4 3,3.1 -0.1,1.7 -1.4,3 -3.1,3 z m 0,-5.3 c -1.2,0 -2.2,1 -2.2,2.2 v 0 c 0,0.6 0.2,1.2 0.6,1.6 0.4,0.4 1,0.7 1.6,0.7 0,0 0,0 0,0 1.2,0 2.2,-1 2.2,-2.2 0,-1.2 -0.9,-2.2 -2.2,-2.3 0,0 0,0 0,0 z"
                   id="path453"
                   style="fill:#008080" />
              </g>
              <g
                 id="g461">
                <rect
                   x="-2585.3999"
                   y="511.89999"
                   transform="matrix(0.01663136,-0.9999,0.9999,0.01663136,-3043.8923,-2069.2896)"
                   class="st6"
                   width="22.9"
                   height="1.8"
                   id="rect457"
                   style="fill:#008080" />
                <path
                   inkscape:connector-curvature="0"
                   class="st5"
                   d="m -2572.8,524.7 h -2.6 l 0.4,-23.7 h 2.6 z m -1.8,-0.9 h 0.9 l 0.4,-22 h -0.9 z"
                   id="path459"
                   style="fill:#008080" />
              </g>
            </g>
            <g
               id="g469">
              <rect
                 x="-2585.5"
                 y="489.60001"
                 transform="matrix(0.01663138,-0.9999,0.9999,0.01663138,-3042.9355,-2091.2131)"
                 class="st6"
                 width="1.8"
                 height="23.5"
                 id="rect465"
                 style="fill:#008080" />
              <path
                 inkscape:connector-curvature="0"
                 class="st5"
                 d="m -2572.5,502.9 -24.3,-0.4 v -2.6 l 24.3,0.4 z m -23.4,-1.3 22.6,0.4 v -0.9 l -22.6,-0.4 z"
                 id="path467"
                 style="fill:#008080" />
            </g>
            <g
               id="g477">
              <g
                 id="g475">
                <rect
                   x="-2567.7"
                   y="548.20001"
                   transform="matrix(0.01663136,-0.9999,0.9999,0.01663136,-3062.7852,-2015.9928)"
                   class="st6"
                   width="22.9"
                   height="1.8"
                   id="rect471"
                   style="fill:#008080" />
                <path
                   inkscape:connector-curvature="0"
                   class="st5"
                   d="m -2555.2,561 h -2.6 l 0.4,-23.7 h 2.6 z m -1.7,-0.9 h 0.9 l 0.4,-22 h -0.9 z"
                   id="path473"
                   style="fill:#008080" />
              </g>
            </g>
            <g
               id="g483">
              <rect
                 x="-2571.3"
                 y="522.40002"
                 transform="matrix(0.01663149,-0.9999,0.9999,0.01663149,-3065.1619,-2041.421)"
                 class="st6"
                 width="1.8"
                 height="30.4"
                 id="rect479"
                 style="fill:#008080" />
              <path
                 inkscape:connector-curvature="0"
                 class="st5"
                 d="m -2554.8,539.1 -31.2,-0.5 V 536 l 31.2,0.5 z m -30.4,-1.3 29.5,0.5 v -0.9 l -29.5,-0.5 z"
                 id="path481"
                 style="fill:#008080" />
            </g>
            <g
               id="g491">
              <g
                 id="g489">
                <rect
                   x="-2514.2"
                   y="503.39999"
                   transform="matrix(0.01663136,-0.9999,0.9999,0.01663136,-2986.2429,-2006.7473)"
                   class="st6"
                   width="1.8"
                   height="22.9"
                   id="rect485"
                   style="fill:#008080" />
                <path
                   inkscape:connector-curvature="0"
                   class="st5"
                   d="m -2501.5,516.3 -23.7,-0.4 v -2.6 l 23.7,0.4 z m -22.8,-1.2 22,0.4 v -0.9 l -22,-0.4 z"
                   id="path487"
                   style="fill:#008080" />
              </g>
            </g>
            <g
               id="g497">
              <rect
                 x="-2540"
                 y="528"
                 transform="matrix(0.01663149,-0.9999,0.9999,0.01663149,-3011.6709,-2004.3702)"
                 class="st6"
                 width="30.4"
                 height="1.8"
                 id="rect493"
                 style="fill:#008080" />
              <path
                 inkscape:connector-curvature="0"
                 class="st5"
                 d="m -2523.8,544.5 h -2.6 l 0.5,-31.2 h 2.6 z m -1.7,-0.8 h 0.9 l 0.5,-29.5 h -0.9 z"
                 id="path495"
                 style="fill:#008080" />
            </g>
            <g
               id="g505">
              <g
                 id="g503">
                <rect
                   x="-2540.8"
                   y="481"
                   transform="matrix(0.01663136,-0.9999,0.9999,0.01663136,-2969.0508,-2055.1426)"
                   class="st6"
                   width="22.9"
                   height="1.8"
                   id="rect499"
                   style="fill:#008080" />
                <path
                   inkscape:connector-curvature="0"
                   class="st5"
                   d="m -2528.2,493.7 h -2.6 l 0.4,-23.7 h 2.6 z m -1.8,-0.8 h 0.9 l 0.4,-22 h -0.9 z"
                   id="path501"
                   style="fill:#008080" />
              </g>
            </g>
            <g
               id="g511">
              <rect
                 x="-2516.1001"
                 y="478.20001"
                 transform="matrix(0.01663149,-0.9999,0.9999,0.01663149,-2966.6733,-2029.7145)"
                 class="st6"
                 width="1.8"
                 height="30.4"
                 id="rect507"
                 style="fill:#008080" />
              <path
                 inkscape:connector-curvature="0"
                 class="st5"
                 d="m -2499.6,494.9 -31.2,-0.5 v -2.6 l 31.2,0.5 z m -30.4,-1.3 29.5,0.5 v -0.9 l -29.5,-0.5 z"
                 id="path509"
                 style="fill:#008080" />
            </g>
            <g
               id="g525">
              <g
                 id="g517">
                <path
                   inkscape:connector-curvature="0"
                   class="st6"
                   d="m -2543.6,488.9 c 0,-2.2 1.9,-4 4.1,-4 2.2,0 4,1.9 4,4.1 0,2.2 -1.9,4 -4.1,4 -2.2,0 -4.1,-1.9 -4,-4.1 z m 6.7,0.1 c 0,-1.5 -1.1,-2.7 -2.6,-2.7 -1.5,0 -2.7,1.1 -2.7,2.6 0,1.5 1.1,2.7 2.6,2.7 1.5,0 2.7,-1.2 2.7,-2.6 z"
                   id="path513"
                   style="fill:#008080" />
                <path
                   inkscape:connector-curvature="0"
                   class="st5"
                   d="m -2539.6,493.4 c 0,0 0,0 0,0 -2.6,0 -4.5,-2.1 -4.5,-4.6 0,-1.2 0.5,-2.3 1.4,-3.2 0.9,-0.8 2,-1.3 3.2,-1.3 1.2,0 2.3,0.5 3.2,1.4 0.8,0.9 1.3,2 1.3,3.2 -0.1,2.5 -2.1,4.5 -4.6,4.5 z m 0,-8.1 c -2,0 -3.6,1.6 -3.7,3.6 0,2 1.6,3.7 3.6,3.7 0,0 0,0 0.1,0 1,0 1.9,-0.4 2.5,-1 0.7,-0.7 1.1,-1.6 1.1,-2.6 0,-1 -0.3,-1.9 -1,-2.6 -0.6,-0.7 -1.5,-1.1 -2.6,-1.1 0.1,0 0.1,0 0,0 z m 0,6.7 c 0,0 0,0 0,0 -0.9,0 -1.6,-0.3 -2.2,-0.9 -0.6,-0.6 -0.9,-1.4 -0.9,-2.2 0,-1.7 1.4,-3 3.1,-3 0,0 0,0 0.1,0 1.7,0 3,1.4 3,3.1 v 0 c 0,1.6 -1.4,3 -3.1,3 z m 0,-5.3 c -0.6,0 -1.1,0.2 -1.5,0.6 -0.4,0.4 -0.7,1 -0.7,1.6 0,0.6 0.2,1.2 0.6,1.6 0.4,0.4 1,0.7 1.6,0.7 1.2,0 2.2,-1 2.3,-2.2 v 0 c 0,-1.3 -1,-2.3 -2.3,-2.3 0.1,0 0.1,0 0,0 z"
                   id="path515"
                   style="fill:#008080" />
              </g>
              <g
                 id="g523">
                <rect
                   x="-2546.3"
                   y="497.5"
                   transform="matrix(0.01663096,-0.9999,0.9999,0.01663096,-2995.8198,-2049.2656)"
                   class="st6"
                   width="13.2"
                   height="1.8"
                   id="rect519"
                   style="fill:#008080" />
                <path
                   inkscape:connector-curvature="0"
                   class="st5"
                   d="m -2538.5,505.4 h -2.6 l 0.2,-14 h 2.6 z m -1.8,-0.8 h 0.9 l 0.2,-12.3 h -0.9 z"
                   id="path521"
                   style="fill:#008080" />
              </g>
            </g>
            <g
               id="g531">
              <rect
                 x="-2525.5"
                 y="489.39999"
                 transform="matrix(0.01663156,-0.9999,0.9999,0.01663156,-2986.9324,-2028.2961)"
                 class="st6"
                 width="1.8"
                 height="29.799999"
                 id="rect527"
                 style="fill:#008080" />
              <path
                 inkscape:connector-curvature="0"
                 class="st5"
                 d="m -2509.3,505.9 -30.7,-0.5 v -2.6 l 30.7,0.5 z m -29.8,-1.3 29,0.5 v -0.9 l -29,-0.5 z"
                 id="path529"
                 style="fill:#008080" />
            </g>
            <g
               id="g545">
              <g
                 id="g537">
                <path
                   inkscape:connector-curvature="0"
                   class="st6"
                   d="m -2565.2,501.4 c 0,-2.2 1.9,-4 4.1,-4 2.2,0 4,1.9 4,4.1 0,2.2 -1.9,4 -4.1,4 -2.2,0 -4,-1.9 -4,-4.1 z m 6.7,0.1 c 0,-1.5 -1.1,-2.7 -2.6,-2.7 -1.5,0 -2.7,1.1 -2.7,2.6 0,1.5 1.1,2.7 2.6,2.7 1.5,0 2.7,-1.2 2.7,-2.6 z"
                   id="path533"
                   style="fill:#008080" />
                <path
                   inkscape:connector-curvature="0"
                   class="st5"
                   d="m -2561.1,505.9 c 0,0 0,0 0,0 -1.3,0 -2.4,-0.5 -3.2,-1.4 -0.8,-0.9 -1.3,-2 -1.3,-3.2 v 0 c 0,-1.2 0.5,-2.3 1.4,-3.2 0.9,-0.8 2,-1.3 3.2,-1.3 1.2,0 2.3,0.5 3.2,1.4 0.8,0.9 1.3,2 1.3,3.2 -0.1,2.6 -2.1,4.5 -4.6,4.5 z m -3.6,-4.5 c 0,1 0.3,1.9 1,2.6 0.7,0.7 1.6,1.1 2.6,1.1 0,0 0,0 0.1,0 2,0 3.6,-1.6 3.7,-3.6 0,-1 -0.3,-1.9 -1,-2.6 -0.7,-0.7 -1.6,-1.1 -2.6,-1.1 -1,0 -1.9,0.3 -2.6,1 -0.8,0.7 -1.2,1.6 -1.2,2.6 z m 3.6,3.1 c 0,0 0,0 0,0 -1.7,0 -3.1,-1.4 -3.1,-3.1 0,-1.7 1.4,-3 3.1,-3 0,0 0,0 0.1,0 1.7,0 3,1.4 3,3.1 v 0 c 0,0.8 -0.3,1.6 -0.9,2.1 -0.6,0.6 -1.4,0.9 -2.2,0.9 z m 0,-5.3 c -0.6,0 -1.1,0.2 -1.5,0.6 -0.4,0.4 -0.7,1 -0.7,1.6 0,0.6 0.2,1.2 0.6,1.6 0.4,0.4 1,0.7 1.6,0.7 0.6,0 1.2,-0.2 1.6,-0.6 0.4,-0.4 0.7,-1 0.7,-1.6 v 0 c 0,-0.6 -0.2,-1.2 -0.6,-1.6 -0.5,-0.4 -1.1,-0.7 -1.7,-0.7 0,0 0,0 0,0 z"
                   id="path535"
                   style="fill:#008080" />
              </g>
              <g
                 id="g543">
                <rect
                   x="-2572.8"
                   y="514.90002"
                   transform="matrix(0.01663136,-0.9999,0.9999,0.01663136,-3034.4417,-2053.8013)"
                   class="st6"
                   width="22.9"
                   height="1.8"
                   id="rect539"
                   style="fill:#008080" />
                <path
                   inkscape:connector-curvature="0"
                   class="st5"
                   d="m -2560.2,527.6 h -2.6 l 0.4,-23.7 h 2.6 z m -1.8,-0.8 h 0.9 l 0.4,-22 h -0.9 z"
                   id="path541"
                   style="fill:#008080" />
              </g>
            </g>
            <g
               id="g551">
              <rect
                 x="-2554.6001"
                 y="518.5"
                 transform="matrix(0.01663108,-0.9999,0.9999,0.01663108,-3038.3296,-2034.958)"
                 class="st6"
                 width="1.8"
                 height="17.4"
                 id="rect547"
                 style="fill:#008080" />
              <path
                 inkscape:connector-curvature="0"
                 class="st5"
                 d="m -2544.6,528.6 -18.2,-0.3 v -2.6 l 18.2,0.3 z m -17.4,-1.1 16.6,0.3 v -0.9 l -16.6,-0.3 z"
                 id="path549"
                 style="fill:#008080" />
            </g>
            <g
               id="g557">
              <rect
                 x="-2559.5"
                 y="539"
                 transform="matrix(0.01663137,-0.9999,0.9999,0.01663137,-3043.5305,-2014.8628)"
                 class="st6"
                 width="26.799999"
                 height="1.8"
                 id="rect553"
                 style="fill:#008080" />
              <path
                 inkscape:connector-curvature="0"
                 class="st5"
                 d="m -2545,553.7 h -2.6 l 0.5,-27.6 h 2.6 z m -1.8,-0.9 h 0.9 l 0.4,-25.9 h -0.9 z"
                 id="path555"
                 style="fill:#008080" />
            </g>
            <g
               id="g565">
              <g
                 id="g563">
                <rect
                   x="-2572.2"
                   y="491.39999"
                   transform="matrix(0.01663163,-0.9999,0.9999,0.01663163,-2999.4751,-2065.2888)"
                   class="st6"
                   width="45"
                   height="1.8"
                   id="rect559"
                   style="fill:#008080" />
                <path
                   inkscape:connector-curvature="0"
                   class="st5"
                   d="m -2548.8,515.2 h -2.6 v -0.4 l 0.8,-45.4 h 2.6 v 0.4 z m -1.7,-0.9 h 0.9 l 0.7,-44.1 h -0.9 z"
                   id="path561"
                   style="fill:#008080" />
              </g>
            </g>
            <g
               id="g571">
              <rect
                 x="-2543.1001"
                 y="506"
                 transform="matrix(0.01663108,-0.9999,0.9999,0.01663108,-3014.5791,-2035.7762)"
                 class="st6"
                 width="1.8"
                 height="17.4"
                 id="rect567"
                 style="fill:#008080" />
              <path
                 inkscape:connector-curvature="0"
                 class="st5"
                 d="m -2533.1,516.1 -18.2,-0.3 v -2.6 l 18.2,0.3 z m -17.4,-1.1 16.6,0.3 v -0.9 l -16.6,-0.3 z"
                 id="path569"
                 style="fill:#008080" />
            </g>
            <g
               id="g577">
              <rect
                 x="-2553.1001"
                 y="531.5"
                 transform="matrix(0.01663151,-0.9999,0.9999,0.01663151,-3024.8699,-2010.8389)"
                 class="st6"
                 width="36.799999"
                 height="1.8"
                 id="rect573"
                 style="fill:#008080" />
              <path
                 inkscape:connector-curvature="0"
                 class="st5"
                 d="m -2533.7,551.2 h -2.6 l 0.6,-37.6 h 2.6 z m -1.8,-0.9 h 0.9 l 0.6,-35.9 h -0.9 z"
                 id="path575"
                 style="fill:#008080" />
            </g>
            <g
               id="g583">
              <path
                 inkscape:connector-curvature="0"
                 class="st6"
                 d="m -2559.7,467.5 h -1.8 l -0.4,22.3 -8.2,-0.1 c -0.4,-1.8 -2,-3.2 -3.9,-3.3 -2.2,0 -4.1,1.8 -4.1,4 0,2.2 1.8,4.1 4,4.1 1.9,0 3.6,-1.3 4,-3.1 l 10,0.2 v -1.8 0 z m -14.4,25.5 c -1.5,0 -2.6,-1.2 -2.6,-2.7 0,-1.5 1.2,-2.6 2.7,-2.6 1.5,0 2.6,1.2 2.6,2.7 0,1.5 -1.2,2.7 -2.7,2.6 z"
                 id="path579"
                 style="fill:#008080" />
              <path
                 inkscape:connector-curvature="0"
                 class="st5"
                 d="m -2574,494.9 c -0.1,0 -0.1,0 0,0 -2.5,0 -4.5,-2.1 -4.5,-4.6 0,-2.5 2.1,-4.4 4.5,-4.4 0,0 0.1,0 0.1,0 2,0 3.7,1.4 4.3,3.3 l 7.5,0.1 0.4,-22.3 h 2.6 l -0.4,22.3 v 0.4 2.2 l -10.1,-0.2 c -0.8,1.9 -2.5,3.2 -4.4,3.2 z m 0,-8.1 c -2,0 -3.6,1.6 -3.7,3.6 0,2 1.6,3.7 3.6,3.7 0,0 0,0 0.1,0 1.7,0 3.2,-1.2 3.5,-2.8 l 0.1,-0.3 9.9,0.2 v -0.9 0 -0.4 l 0.4,-21.8 h -0.9 l -0.4,22.3 -9,-0.1 -0.1,-0.3 c -0.3,-2 -1.8,-3.2 -3.5,-3.2 0,0 0,0 0,0 z m 0,6.7 c -0.1,0 -0.1,0 0,0 -0.9,0 -1.6,-0.3 -2.2,-0.9 -0.6,-0.6 -0.9,-1.4 -0.9,-2.2 0,-0.8 0.3,-1.6 0.9,-2.1 0.6,-0.5 1.4,-0.8 2.2,-0.9 1.7,0 3,1.4 3,3.1 0,1.6 -1.4,3 -3,3 z m 0,-5.3 c -0.6,0 -1.1,0.2 -1.5,0.6 -0.4,0.4 -0.7,1 -0.7,1.6 0,0.6 0.2,1.2 0.6,1.6 0.4,0.4 1,0.7 1.6,0.7 0,0 0,0 0,0 1.2,0 2.2,-1 2.2,-2.2 0,-1.3 -1,-2.3 -2.2,-2.3 0,0 0,0 0,0 z"
                 id="path581"
                 style="fill:#008080" />
            </g>
          </g>
        </g>
      </g>
    </g>
  </g>
</svg>
